<svg xmlns="http://www.w3.org/2000/svg" viewBox="0 0 1920 1080" width="1920" height="1080" style="background:#070709;">
      <defs>
        <radialGradient id="bgVignette" cx="50%" cy="50%" r="65%">
          <stop offset="0%" stop-color="#1c160e" stop-opacity="0.9" />
          <stop offset="50%" stop-color="#0e0d0b" stop-opacity="0.96" />
          <stop offset="100%" stop-color="#060607" stop-opacity="1" />
        </radialGradient>
        <linearGradient id="goldGrad" x1="0%" y1="0%" x2="100%" y2="100%">
          <stop offset="0%" stop-color="#f6d365" />
          <stop offset="50%" stop-color="#fff2c6" />
          <stop offset="100%" stop-color="#fda085" />
        </linearGradient>
        <linearGradient id="roseGoldGrad" x1="100%" y1="0%" x2="0%" y2="100%">
          <stop offset="0%" stop-color="#ff7675" />
          <stop offset="50%" stop-color="#fab1a0" />
          <stop offset="100%" stop-color="#fdcb6e" />
        </linearGradient>
        <filter id="goldGlow" x="-30%" y="-30%" width="160%" height="160%">
          <feGaussianBlur stdDeviation="8" result="blur" />
          <feComposite in="SourceGraphic" in2="blur" operator="over" />
        </filter>
        <filter id="heavyGlow" x="-50%" y="-50%" width="200%" height="200%">
          <feGaussianBlur stdDeviation="28" result="blur" />
          <feComposite in="SourceGraphic" in2="blur" operator="over" />
        </filter>
      </defs>

      <rect width="1920" height="1080" fill="url(#bgVignette)" />

      <circle cx="960" cy="540" r="331.6" fill="#f6d365" opacity="0.12" filter="url(#heavyGlow)" />
      <circle cx="976.4" cy="460.8" r="220" fill="#e17055" opacity="0.08" filter="url(#heavyGlow)" />

      <g transform="translate(960, 540) rotate(478.4) scale(0.955)">
        <ellipse cx="0" cy="0" rx="440" ry="240" stroke="url(#goldGrad)" stroke-width="2.5" fill="none" opacity="0.75" filter="url(#goldGlow)" />
        <ellipse cx="0" cy="0" rx="360" ry="360" stroke="url(#roseGoldGrad)" stroke-width="1.5" stroke-dasharray="8 14" fill="none" opacity="0.5" />
      </g>

      <g transform="translate(960, 540) rotate(-701.6) scale(0.955)">
        <ellipse cx="0" cy="0" rx="480" ry="180" stroke="url(#goldGrad)" stroke-width="2" stroke-dasharray="16 8" fill="none" opacity="0.6" filter="url(#goldGlow)" />
        <circle cx="0" cy="0" r="280" stroke="rgba(255, 234, 167, 0.4)" stroke-width="1" fill="none" />
      </g>

      <g transform="translate(960, 540) rotate(1001.8) scale(0.955)">
        <ellipse cx="0" cy="0" rx="520" ry="300" stroke="url(#roseGoldGrad)" stroke-width="2" fill="none" opacity="0.65" />
      </g>

      <circle cx="995.5" cy="639.7" r="57.3" stroke="url(#goldGrad)" stroke-width="1.5" fill="none" opacity="0.50" filter="url(#goldGlow)" />
      <circle cx="1109.6" cy="695.4" r="78.3" stroke="url(#goldGrad)" stroke-width="1.9" fill="none" opacity="0.19" filter="url(#goldGlow)" />
      <circle cx="1201.6" cy="712.0" r="99.3" stroke="url(#goldGrad)" stroke-width="2.3" fill="none" opacity="-0.11" filter="url(#goldGlow)" />
      <circle cx="1250.5" cy="673.8" r="120.4" stroke="url(#goldGrad)" stroke-width="2.7" fill="none" opacity="-0.33" filter="url(#goldGlow)" />
      <circle cx="1242.6" cy="582.5" r="141.4" stroke="url(#goldGrad)" stroke-width="3.1" fill="none" opacity="-0.44" filter="url(#goldGlow)" />
      <circle cx="1175.5" cy="459.1" r="162.4" stroke="url(#goldGrad)" stroke-width="3.5" fill="none" opacity="-0.42" filter="url(#goldGlow)" />
      <circle cx="1059.1" cy="339.2" r="183.4" stroke="url(#goldGrad)" stroke-width="3.9000000000000004" fill="none" opacity="-0.26" filter="url(#goldGlow)" />
      <circle cx="914.4" cy="263.1" r="204.4" stroke="url(#goldGrad)" stroke-width="4.300000000000001" fill="none" opacity="0.00" filter="url(#goldGlow)" />

      <g transform="translate(960, 540) scale(0.955)">
        <circle cx="0" cy="0" r="150.7" fill="url(#goldGrad)" opacity="0.22" filter="url(#heavyGlow)" />
        <circle cx="0" cy="0" r="113.0" stroke="url(#goldGrad)" stroke-width="3" fill="none" opacity="0.9" filter="url(#goldGlow)" />
        <circle cx="0" cy="0" r="60.3" fill="#fffdfa" opacity="0.85" filter="url(#goldGlow)" />

        <line x1="-120" y1="0" x2="120" y2="0" stroke="#f6d365" stroke-width="1.2" opacity="0.6" stroke-dasharray="4 6" />
        <line x1="0" y1="-120" x2="0" y2="120" stroke="#f6d365" stroke-width="1.2" opacity="0.6" stroke-dasharray="4 6" />
      </g>

      <circle cx="810.2" cy="692.4" r="3.3" fill="#ffeaa7" opacity="0.88" filter="url(#goldGlow)" />
      <circle cx="785.9" cy="660.9" r="2.6" fill="#ffeaa7" opacity="0.32" filter="url(#goldGlow)" />
      <circle cx="764.3" cy="635.6" r="0.2" fill="#ffeaa7" opacity="0.90" filter="url(#goldGlow)" />
      <circle cx="735.2" cy="616.1" r="2.9" fill="#ffeaa7" opacity="0.93" filter="url(#goldGlow)" />
      <circle cx="693.5" cy="598.1" r="3.0" fill="#ffeaa7" opacity="0.38" filter="url(#goldGlow)" />
      <circle cx="643.0" cy="575.8" r="0.2" fill="#ffeaa7" opacity="0.84" filter="url(#goldGlow)" />
      <circle cx="595.2" cy="545.6" r="2.4" fill="#ffeaa7" opacity="0.96" filter="url(#goldGlow)" />
      <circle cx="564.6" cy="507.9" r="3.4" fill="#ffeaa7" opacity="0.47" filter="url(#goldGlow)" />
      <circle cx="563.1" cy="467.4" r="0.4" fill="#ffeaa7" opacity="0.78" filter="url(#goldGlow)" />
      <circle cx="594.0" cy="431.2" r="1.9" fill="#ffeaa7" opacity="0.99" filter="url(#goldGlow)" />
      <circle cx="651.7" cy="405.7" r="3.7" fill="#ffeaa7" opacity="0.57" filter="url(#goldGlow)" />
      <circle cx="723.4" cy="393.5" r="0.7" fill="#ffeaa7" opacity="0.70" filter="url(#goldGlow)" />
      <circle cx="794.9" cy="392.5" r="1.4" fill="#ffeaa7" opacity="1.00" filter="url(#goldGlow)" />
      <circle cx="856.7" cy="396.6" r="3.8" fill="#ffeaa7" opacity="0.66" filter="url(#goldGlow)" />
      <circle cx="907.3" cy="399.0" r="1.1" fill="#ffeaa7" opacity="0.61" filter="url(#goldGlow)" />
      <circle cx="952.6" cy="394.9" r="1.0" fill="#ffeaa7" opacity="1.00" filter="url(#goldGlow)" />
      <circle cx="1001.8" cy="384.0" r="3.8" fill="#ffeaa7" opacity="0.74" filter="url(#goldGlow)" />
      <circle cx="1062.1" cy="371.1" r="1.6" fill="#ffeaa7" opacity="0.52" filter="url(#goldGlow)" />
      <circle cx="1133.5" cy="363.4" r="0.6" fill="#ffeaa7" opacity="0.98" filter="url(#goldGlow)" />
      <circle cx="1208.2" cy="367.7" r="3.6" fill="#ffeaa7" opacity="0.81" filter="url(#goldGlow)" />
      <circle cx="1272.8" cy="387.2" r="2.1" fill="#ffeaa7" opacity="0.43" filter="url(#goldGlow)" />
      <circle cx="1314.3" cy="420.1" r="0.3" fill="#ffeaa7" opacity="0.95" filter="url(#goldGlow)" />
      <circle cx="1325.7" cy="460.3" r="3.3" fill="#ffeaa7" opacity="0.87" filter="url(#goldGlow)" />
      <circle cx="1309.1" cy="500.6" r="2.6" fill="#ffeaa7" opacity="0.33" filter="url(#goldGlow)" />
      <circle cx="1274.9" cy="535.1" r="0.2" fill="#ffeaa7" opacity="0.90" filter="url(#goldGlow)" />
      <circle cx="1237.4" cy="562.5" r="2.9" fill="#ffeaa7" opacity="0.92" filter="url(#goldGlow)" />
      <circle cx="1208.3" cy="585.4" r="3.0" fill="#ffeaa7" opacity="0.37" filter="url(#goldGlow)" />
      <circle cx="1192.3" cy="609.0" r="0.2" fill="#ffeaa7" opacity="0.85" filter="url(#goldGlow)" />
      <circle cx="1184.7" cy="637.9" r="2.5" fill="#ffeaa7" opacity="0.96" filter="url(#goldGlow)" />
      <circle cx="1174.9" cy="673.1" r="3.4" fill="#ffeaa7" opacity="0.47" filter="url(#goldGlow)" />
      <circle cx="1151.3" cy="711.0" r="0.4" fill="#ffeaa7" opacity="0.78" filter="url(#goldGlow)" />
      <circle cx="1107.2" cy="744.4" r="1.9" fill="#ffeaa7" opacity="0.99" filter="url(#goldGlow)" />
      <circle cx="1044.2" cy="765.4" r="3.7" fill="#ffeaa7" opacity="0.56" filter="url(#goldGlow)" />
      <circle cx="971.7" cy="768.7" r="0.7" fill="#ffeaa7" opacity="0.70" filter="url(#goldGlow)" />
      <circle cx="902.6" cy="754.0" r="1.4" fill="#ffeaa7" opacity="1.00" filter="url(#goldGlow)" />
      <circle cx="847.6" cy="726.0" r="3.8" fill="#ffeaa7" opacity="0.65" filter="url(#goldGlow)" />

      <path d="M 80 120 L 80 80 L 120 80" stroke="#d4af37" stroke-width="2" fill="none" opacity="0.4" />
      <path d="M 1840 120 L 1840 80 L 1800 80" stroke="#d4af37" stroke-width="2" fill="none" opacity="0.4" />
      <path d="M 80 960 L 80 1000 L 120 1000" stroke="#d4af37" stroke-width="2" fill="none" opacity="0.4" />
      <path d="M 1840 960 L 1840 1000 L 1800 1000" stroke="#d4af37" stroke-width="2" fill="none" opacity="0.4" />

      <text x="960" y="1020" font-family="'Outfit', sans-serif" font-size="13" font-weight="600" fill="#aa8c4a" letter-spacing="0.35em" text-anchor="middle" opacity="0.6">
        ROSEFIT KINETIC CORE // SEQUENCE 133 / 150
      </text>
    </svg>