<svg xmlns="http://www.w3.org/2000/svg" viewBox="0 0 1920 1080" width="1920" height="1080" style="background:#070709;">
      <defs>
        <radialGradient id="bgVignette" cx="50%" cy="50%" r="65%">
          <stop offset="0%" stop-color="#1c160e" stop-opacity="0.9" />
          <stop offset="50%" stop-color="#0e0d0b" stop-opacity="0.96" />
          <stop offset="100%" stop-color="#060607" stop-opacity="1" />
        </radialGradient>
        <linearGradient id="goldGrad" x1="0%" y1="0%" x2="100%" y2="100%">
          <stop offset="0%" stop-color="#d4af37" />
          <stop offset="50%" stop-color="#fff2c6" />
          <stop offset="100%" stop-color="#aa771c" />
        </linearGradient>
        <linearGradient id="roseGoldGrad" x1="100%" y1="0%" x2="0%" y2="100%">
          <stop offset="0%" stop-color="#ff7675" />
          <stop offset="50%" stop-color="#fab1a0" />
          <stop offset="100%" stop-color="#fdcb6e" />
        </linearGradient>
        <filter id="goldGlow" x="-30%" y="-30%" width="160%" height="160%">
          <feGaussianBlur stdDeviation="8" result="blur" />
          <feComposite in="SourceGraphic" in2="blur" operator="over" />
        </filter>
        <filter id="heavyGlow" x="-50%" y="-50%" width="200%" height="200%">
          <feGaussianBlur stdDeviation="28" result="blur" />
          <feComposite in="SourceGraphic" in2="blur" operator="over" />
        </filter>
      </defs>

      <rect width="1920" height="1080" fill="url(#bgVignette)" />

      <circle cx="960" cy="540" r="320.0" fill="#d4af37" opacity="0.12" filter="url(#heavyGlow)" />
      <circle cx="840.7" cy="548.4" r="220" fill="#e17055" opacity="0.08" filter="url(#heavyGlow)" />

      <g transform="translate(960, 540) rotate(130.5) scale(1.056)">
        <ellipse cx="0" cy="0" rx="440" ry="240" stroke="url(#goldGrad)" stroke-width="2.5" fill="none" opacity="0.75" filter="url(#goldGlow)" />
        <ellipse cx="0" cy="0" rx="360" ry="360" stroke="url(#roseGoldGrad)" stroke-width="1.5" stroke-dasharray="8 14" fill="none" opacity="0.5" />
      </g>

      <g transform="translate(960, 540) rotate(-191.4) scale(1.056)">
        <ellipse cx="0" cy="0" rx="480" ry="180" stroke="url(#goldGrad)" stroke-width="2" stroke-dasharray="16 8" fill="none" opacity="0.6" filter="url(#goldGlow)" />
        <circle cx="0" cy="0" r="280" stroke="rgba(255, 234, 167, 0.4)" stroke-width="1" fill="none" />
      </g>

      <g transform="translate(960, 540) rotate(305.9) scale(1.056)">
        <ellipse cx="0" cy="0" rx="520" ry="300" stroke="url(#roseGoldGrad)" stroke-width="2" fill="none" opacity="0.65" />
      </g>

      <circle cx="701.4" cy="472.7" r="63.4" stroke="url(#goldGrad)" stroke-width="1.5" fill="none" opacity="0.73" filter="url(#goldGlow)" />
      <circle cx="695.7" cy="402.0" r="86.6" stroke="url(#goldGrad)" stroke-width="1.9" fill="none" opacity="0.90" filter="url(#goldGlow)" />
      <circle cx="748.4" cy="360.0" r="109.9" stroke="url(#goldGrad)" stroke-width="2.3" fill="none" opacity="0.95" filter="url(#goldGlow)" />
      <circle cx="855.7" cy="369.2" r="133.1" stroke="url(#goldGrad)" stroke-width="2.7" fill="none" opacity="0.85" filter="url(#goldGlow)" />
      <circle cx="1000.7" cy="437.3" r="156.4" stroke="url(#goldGrad)" stroke-width="3.1" fill="none" opacity="0.64" filter="url(#goldGlow)" />
      <circle cx="1155.3" cy="552.7" r="179.6" stroke="url(#goldGrad)" stroke-width="3.5" fill="none" opacity="0.35" filter="url(#goldGlow)" />
      <circle cx="1286.4" cy="685.0" r="202.8" stroke="url(#goldGrad)" stroke-width="3.9000000000000004" fill="none" opacity="0.04" filter="url(#goldGlow)" />
      <circle cx="1362.3" cy="793.3" r="226.1" stroke="url(#goldGrad)" stroke-width="4.300000000000001" fill="none" opacity="-0.23" filter="url(#goldGlow)" />

      <g transform="translate(960, 540) scale(1.056)">
        <circle cx="0" cy="0" r="145.4" fill="url(#goldGrad)" opacity="0.22" filter="url(#heavyGlow)" />
        <circle cx="0" cy="0" r="109.1" stroke="url(#goldGrad)" stroke-width="3" fill="none" opacity="0.9" filter="url(#goldGlow)" />
        <circle cx="0" cy="0" r="58.2" fill="#fffdfa" opacity="0.85" filter="url(#goldGlow)" />

        <line x1="-120" y1="0" x2="120" y2="0" stroke="#f6d365" stroke-width="1.2" opacity="0.6" stroke-dasharray="4 6" />
        <line x1="0" y1="-120" x2="0" y2="120" stroke="#f6d365" stroke-width="1.2" opacity="0.6" stroke-dasharray="4 6" />
      </g>

      <circle cx="687.5" cy="715.7" r="3.7" fill="#ffeaa7" opacity="0.99" filter="url(#goldGlow)" />
      <circle cx="642.7" cy="684.0" r="0.7" fill="#ffeaa7" opacity="0.75" filter="url(#goldGlow)" />
      <circle cx="626.0" cy="644.0" r="1.4" fill="#ffeaa7" opacity="0.51" filter="url(#goldGlow)" />
      <circle cx="635.3" cy="603.3" r="3.8" fill="#ffeaa7" opacity="0.98" filter="url(#goldGlow)" />
      <circle cx="660.2" cy="567.7" r="1.1" fill="#ffeaa7" opacity="0.82" filter="url(#goldGlow)" />
      <circle cx="686.9" cy="538.8" r="0.9" fill="#ffeaa7" opacity="0.42" filter="url(#goldGlow)" />
      <circle cx="704.2" cy="514.0" r="3.8" fill="#ffeaa7" opacity="0.94" filter="url(#goldGlow)" />
      <circle cx="708.4" cy="488.3" r="1.6" fill="#ffeaa7" opacity="0.88" filter="url(#goldGlow)" />
      <circle cx="704.7" cy="457.4" r="0.6" fill="#ffeaa7" opacity="0.32" filter="url(#goldGlow)" />
      <circle cx="704.8" cy="420.2" r="3.6" fill="#ffeaa7" opacity="0.90" filter="url(#goldGlow)" />
      <circle cx="720.7" cy="380.5" r="2.1" fill="#ffeaa7" opacity="0.93" filter="url(#goldGlow)" />
      <circle cx="759.4" cy="345.3" r="0.3" fill="#ffeaa7" opacity="0.38" filter="url(#goldGlow)" />
      <circle cx="819.6" cy="322.4" r="3.3" fill="#ffeaa7" opacity="0.84" filter="url(#goldGlow)" />
      <circle cx="891.9" cy="316.8" r="2.6" fill="#ffeaa7" opacity="0.97" filter="url(#goldGlow)" />
      <circle cx="963.1" cy="328.9" r="0.2" fill="#ffeaa7" opacity="0.48" filter="url(#goldGlow)" />
      <circle cx="1022.6" cy="353.7" r="2.9" fill="#ffeaa7" opacity="0.77" filter="url(#goldGlow)" />
      <circle cx="1066.3" cy="383.4" r="3.1" fill="#ffeaa7" opacity="0.99" filter="url(#goldGlow)" />
      <circle cx="1098.5" cy="410.6" r="0.2" fill="#ffeaa7" opacity="0.57" filter="url(#goldGlow)" />
      <circle cx="1128.8" cy="431.2" r="2.4" fill="#ffeaa7" opacity="0.70" filter="url(#goldGlow)" />
      <circle cx="1167.2" cy="446.0" r="3.4" fill="#ffeaa7" opacity="1.00" filter="url(#goldGlow)" />
      <circle cx="1217.7" cy="459.7" r="0.4" fill="#ffeaa7" opacity="0.66" filter="url(#goldGlow)" />
      <circle cx="1276.2" cy="478.3" r="1.9" fill="#ffeaa7" opacity="0.61" filter="url(#goldGlow)" />
      <circle cx="1330.9" cy="505.8" r="3.7" fill="#ffeaa7" opacity="1.00" filter="url(#goldGlow)" />
      <circle cx="1366.9" cy="541.8" r="0.7" fill="#ffeaa7" opacity="0.74" filter="url(#goldGlow)" />
      <circle cx="1372.9" cy="582.0" r="1.4" fill="#ffeaa7" opacity="0.52" filter="url(#goldGlow)" />
      <circle cx="1345.4" cy="619.1" r="3.8" fill="#ffeaa7" opacity="0.98" filter="url(#goldGlow)" />
      <circle cx="1290.8" cy="647.0" r="1.1" fill="#ffeaa7" opacity="0.81" filter="url(#goldGlow)" />
      <circle cx="1222.1" cy="663.0" r="1.0" fill="#ffeaa7" opacity="0.42" filter="url(#goldGlow)" />
      <circle cx="1153.5" cy="668.9" r="3.8" fill="#ffeaa7" opacity="0.95" filter="url(#goldGlow)" />
      <circle cx="1094.6" cy="670.7" r="1.6" fill="#ffeaa7" opacity="0.88" filter="url(#goldGlow)" />
      <circle cx="1047.0" cy="674.8" r="0.6" fill="#ffeaa7" opacity="0.32" filter="url(#goldGlow)" />
      <circle cx="1004.5" cy="685.7" r="3.6" fill="#ffeaa7" opacity="0.90" filter="url(#goldGlow)" />
      <circle cx="957.6" cy="702.9" r="2.1" fill="#ffeaa7" opacity="0.93" filter="url(#goldGlow)" />
      <circle cx="899.0" cy="721.5" r="0.3" fill="#ffeaa7" opacity="0.38" filter="url(#goldGlow)" />
      <circle cx="828.5" cy="733.8" r="3.3" fill="#ffeaa7" opacity="0.84" filter="url(#goldGlow)" />
      <circle cx="753.7" cy="732.9" r="2.6" fill="#ffeaa7" opacity="0.96" filter="url(#goldGlow)" />

      <path d="M 80 120 L 80 80 L 120 80" stroke="#d4af37" stroke-width="2" fill="none" opacity="0.4" />
      <path d="M 1840 120 L 1840 80 L 1800 80" stroke="#d4af37" stroke-width="2" fill="none" opacity="0.4" />
      <path d="M 80 960 L 80 1000 L 120 1000" stroke="#d4af37" stroke-width="2" fill="none" opacity="0.4" />
      <path d="M 1840 960 L 1840 1000 L 1800 1000" stroke="#d4af37" stroke-width="2" fill="none" opacity="0.4" />

      <text x="960" y="1020" font-family="'Outfit', sans-serif" font-size="13" font-weight="600" fill="#aa8c4a" letter-spacing="0.35em" text-anchor="middle" opacity="0.6">
        ROSEFIT KINETIC CORE // SEQUENCE 037 / 150
      </text>
    </svg>