<svg xmlns="http://www.w3.org/2000/svg" viewBox="0 0 1920 1080" width="1920" height="1080" style="background:#070709;">
      <defs>
        <radialGradient id="bgVignette" cx="50%" cy="50%" r="65%">
          <stop offset="0%" stop-color="#1c160e" stop-opacity="0.9" />
          <stop offset="50%" stop-color="#0e0d0b" stop-opacity="0.96" />
          <stop offset="100%" stop-color="#060607" stop-opacity="1" />
        </radialGradient>
        <linearGradient id="goldGrad" x1="0%" y1="0%" x2="100%" y2="100%">
          <stop offset="0%" stop-color="#f6d365" />
          <stop offset="50%" stop-color="#fff2c6" />
          <stop offset="100%" stop-color="#fda085" />
        </linearGradient>
        <linearGradient id="roseGoldGrad" x1="100%" y1="0%" x2="0%" y2="100%">
          <stop offset="0%" stop-color="#ff7675" />
          <stop offset="50%" stop-color="#fab1a0" />
          <stop offset="100%" stop-color="#fdcb6e" />
        </linearGradient>
        <filter id="goldGlow" x="-30%" y="-30%" width="160%" height="160%">
          <feGaussianBlur stdDeviation="8" result="blur" />
          <feComposite in="SourceGraphic" in2="blur" operator="over" />
        </filter>
        <filter id="heavyGlow" x="-50%" y="-50%" width="200%" height="200%">
          <feGaussianBlur stdDeviation="28" result="blur" />
          <feComposite in="SourceGraphic" in2="blur" operator="over" />
        </filter>
      </defs>

      <rect width="1920" height="1080" fill="url(#bgVignette)" />

      <circle cx="960" cy="540" r="369.0" fill="#f6d365" opacity="0.12" filter="url(#heavyGlow)" />
      <circle cx="926.3" cy="463.2" r="220" fill="#e17055" opacity="0.08" filter="url(#heavyGlow)" />

      <g transform="translate(960, 540) rotate(460.3) scale(0.984)">
        <ellipse cx="0" cy="0" rx="440" ry="240" stroke="url(#goldGrad)" stroke-width="2.5" fill="none" opacity="0.75" filter="url(#goldGlow)" />
        <ellipse cx="0" cy="0" rx="360" ry="360" stroke="url(#roseGoldGrad)" stroke-width="1.5" stroke-dasharray="8 14" fill="none" opacity="0.5" />
      </g>

      <g transform="translate(960, 540) rotate(-675.1) scale(0.984)">
        <ellipse cx="0" cy="0" rx="480" ry="180" stroke="url(#goldGrad)" stroke-width="2" stroke-dasharray="16 8" fill="none" opacity="0.6" filter="url(#goldGlow)" />
        <circle cx="0" cy="0" r="280" stroke="rgba(255, 234, 167, 0.4)" stroke-width="1" fill="none" />
      </g>

      <g transform="translate(960, 540) rotate(965.5) scale(0.984)">
        <ellipse cx="0" cy="0" rx="520" ry="300" stroke="url(#roseGoldGrad)" stroke-width="2" fill="none" opacity="0.65" />
      </g>

      <circle cx="887.0" cy="579.6" r="59.1" stroke="url(#goldGrad)" stroke-width="1.5" fill="none" opacity="0.56" filter="url(#goldGlow)" />
      <circle cx="1004.7" cy="657.6" r="80.7" stroke="url(#goldGrad)" stroke-width="1.9" fill="none" opacity="0.26" filter="url(#goldGlow)" />
      <circle cx="1125.0" cy="716.2" r="102.4" stroke="url(#goldGrad)" stroke-width="2.3" fill="none" opacity="-0.04" filter="url(#goldGlow)" />
      <circle cx="1222.2" cy="729.1" r="124.0" stroke="url(#goldGrad)" stroke-width="2.7" fill="none" opacity="-0.29" filter="url(#goldGlow)" />
      <circle cx="1273.1" cy="681.8" r="145.7" stroke="url(#goldGrad)" stroke-width="3.1" fill="none" opacity="-0.43" filter="url(#goldGlow)" />
      <circle cx="1262.7" cy="578.7" r="167.3" stroke="url(#goldGrad)" stroke-width="3.5" fill="none" opacity="-0.43" filter="url(#goldGlow)" />
      <circle cx="1188.0" cy="444.4" r="189.0" stroke="url(#goldGrad)" stroke-width="3.9000000000000004" fill="none" opacity="-0.30" filter="url(#goldGlow)" />
      <circle cx="1059.4" cy="318.1" r="210.6" stroke="url(#goldGrad)" stroke-width="4.300000000000001" fill="none" opacity="-0.06" filter="url(#goldGlow)" />

      <g transform="translate(960, 540) scale(0.984)">
        <circle cx="0" cy="0" r="167.7" fill="url(#goldGrad)" opacity="0.22" filter="url(#heavyGlow)" />
        <circle cx="0" cy="0" r="125.8" stroke="url(#goldGrad)" stroke-width="3" fill="none" opacity="0.9" filter="url(#goldGlow)" />
        <circle cx="0" cy="0" r="67.1" fill="#fffdfa" opacity="0.85" filter="url(#goldGlow)" />

        <line x1="-120" y1="0" x2="120" y2="0" stroke="#f6d365" stroke-width="1.2" opacity="0.6" stroke-dasharray="4 6" />
        <line x1="0" y1="-120" x2="0" y2="120" stroke="#f6d365" stroke-width="1.2" opacity="0.6" stroke-dasharray="4 6" />
      </g>

      <circle cx="889.5" cy="754.0" r="2.9" fill="#ffeaa7" opacity="0.94" filter="url(#goldGlow)" />
      <circle cx="835.6" cy="725.3" r="3.0" fill="#ffeaa7" opacity="0.42" filter="url(#goldGlow)" />
      <circle cx="799.8" cy="690.9" r="0.2" fill="#ffeaa7" opacity="0.82" filter="url(#goldGlow)" />
      <circle cx="777.5" cy="658.5" r="2.4" fill="#ffeaa7" opacity="0.98" filter="url(#goldGlow)" />
      <circle cx="758.3" cy="632.2" r="3.4" fill="#ffeaa7" opacity="0.51" filter="url(#goldGlow)" />
      <circle cx="731.5" cy="611.8" r="0.4" fill="#ffeaa7" opacity="0.75" filter="url(#goldGlow)" />
      <circle cx="692.1" cy="592.8" r="1.9" fill="#ffeaa7" opacity="1.00" filter="url(#goldGlow)" />
      <circle cx="643.8" cy="569.8" r="3.7" fill="#ffeaa7" opacity="0.61" filter="url(#goldGlow)" />
      <circle cx="597.8" cy="539.1" r="0.7" fill="#ffeaa7" opacity="0.66" filter="url(#goldGlow)" />
      <circle cx="568.7" cy="501.0" r="1.4" fill="#ffeaa7" opacity="1.00" filter="url(#goldGlow)" />
      <circle cx="568.2" cy="460.4" r="3.8" fill="#ffeaa7" opacity="0.69" filter="url(#goldGlow)" />
      <circle cx="600.0" cy="424.4" r="1.1" fill="#ffeaa7" opacity="0.58" filter="url(#goldGlow)" />
      <circle cx="658.3" cy="399.4" r="1.0" fill="#ffeaa7" opacity="0.99" filter="url(#goldGlow)" />
      <circle cx="730.4" cy="388.1" r="3.8" fill="#ffeaa7" opacity="0.77" filter="url(#goldGlow)" />
      <circle cx="802.4" cy="388.2" r="1.5" fill="#ffeaa7" opacity="0.48" filter="url(#goldGlow)" />
      <circle cx="864.7" cy="393.8" r="0.6" fill="#ffeaa7" opacity="0.97" filter="url(#goldGlow)" />
      <circle cx="915.7" cy="397.8" r="3.6" fill="#ffeaa7" opacity="0.84" filter="url(#goldGlow)" />
      <circle cx="961.2" cy="395.3" r="2.0" fill="#ffeaa7" opacity="0.39" filter="url(#goldGlow)" />
      <circle cx="1010.7" cy="386.0" r="0.3" fill="#ffeaa7" opacity="0.93" filter="url(#goldGlow)" />
      <circle cx="1071.1" cy="374.5" r="3.3" fill="#ffeaa7" opacity="0.90" filter="url(#goldGlow)" />
      <circle cx="1142.6" cy="367.9" r="2.5" fill="#ffeaa7" opacity="0.31" filter="url(#goldGlow)" />
      <circle cx="1217.1" cy="373.1" r="0.2" fill="#ffeaa7" opacity="0.88" filter="url(#goldGlow)" />
      <circle cx="1281.2" cy="393.2" r="2.9" fill="#ffeaa7" opacity="0.94" filter="url(#goldGlow)" />
      <circle cx="1322.0" cy="426.3" r="3.0" fill="#ffeaa7" opacity="0.41" filter="url(#goldGlow)" />
      <circle cx="1332.2" cy="466.6" r="0.2" fill="#ffeaa7" opacity="0.82" filter="url(#goldGlow)" />
      <circle cx="1314.0" cy="506.6" r="2.5" fill="#ffeaa7" opacity="0.97" filter="url(#goldGlow)" />
      <circle cx="1277.7" cy="540.8" r="3.4" fill="#ffeaa7" opacity="0.51" filter="url(#goldGlow)" />
      <circle cx="1237.8" cy="567.7" r="0.4" fill="#ffeaa7" opacity="0.75" filter="url(#goldGlow)" />
      <circle cx="1206.1" cy="590.0" r="2.0" fill="#ffeaa7" opacity="0.99" filter="url(#goldGlow)" />
      <circle cx="1187.3" cy="613.0" r="3.6" fill="#ffeaa7" opacity="0.60" filter="url(#goldGlow)" />
      <circle cx="1177.1" cy="641.2" r="0.7" fill="#ffeaa7" opacity="0.67" filter="url(#goldGlow)" />
      <circle cx="1165.1" cy="675.7" r="1.5" fill="#ffeaa7" opacity="1.00" filter="url(#goldGlow)" />
      <circle cx="1139.7" cy="713.0" r="3.8" fill="#ffeaa7" opacity="0.69" filter="url(#goldGlow)" />
      <circle cx="1094.3" cy="745.9" r="1.0" fill="#ffeaa7" opacity="0.58" filter="url(#goldGlow)" />
      <circle cx="1030.6" cy="766.4" r="1.0" fill="#ffeaa7" opacity="0.99" filter="url(#goldGlow)" />
      <circle cx="958.0" cy="769.3" r="3.8" fill="#ffeaa7" opacity="0.77" filter="url(#goldGlow)" />

      <path d="M 80 120 L 80 80 L 120 80" stroke="#d4af37" stroke-width="2" fill="none" opacity="0.4" />
      <path d="M 1840 120 L 1840 80 L 1800 80" stroke="#d4af37" stroke-width="2" fill="none" opacity="0.4" />
      <path d="M 80 960 L 80 1000 L 120 1000" stroke="#d4af37" stroke-width="2" fill="none" opacity="0.4" />
      <path d="M 1840 960 L 1840 1000 L 1800 1000" stroke="#d4af37" stroke-width="2" fill="none" opacity="0.4" />

      <text x="960" y="1020" font-family="'Outfit', sans-serif" font-size="13" font-weight="600" fill="#aa8c4a" letter-spacing="0.35em" text-anchor="middle" opacity="0.6">
        ROSEFIT KINETIC CORE // SEQUENCE 128 / 150
      </text>
    </svg>